<?xml version="1.0" encoding="UTF-8" standalone="no"?>
<svg width="72px" height="59px" viewBox="0 0 72 59" version="1.1" xmlns="http://www.w3.org/2000/svg" xmlns:xlink="http://www.w3.org/1999/xlink" xmlns:sketch="http://www.bohemiancoding.com/sketch/ns">
    <!-- Generator: Sketch 3.3.3 (12072) - http://www.bohemiancoding.com/sketch -->
    <title>logo</title>
    <desc>Created with Sketch.</desc>
    <defs></defs>
    <g id="Page-2" stroke="none" stroke-width="1" fill="none" fill-rule="evenodd" sketch:type="MSPage">
        <g id="Group" sketch:type="MSLayerGroup" transform="translate(2.000000, 9.000000)" fill="#0044B6">
            <rect id="Rectangle-1-Copy-8" stroke="#0044B6" sketch:type="MSShapeGroup" x="26" y="28.5" width="8" height="8"></rect>
            <rect id="Rectangle-1-Copy-9" stroke="#0044B6" fill-opacity="0.4" sketch:type="MSShapeGroup" x="37" y="28.5" width="32" height="8"></rect>
            <path d="M17.3603516,28.015625 C17.3603516,26.2415276 16.8802131,24.8824917 15.9199219,23.9384766 C14.9596306,22.9944614 13.2262495,22.0748743 10.7197266,21.1796875 C8.21320361,20.2845007 6.29671887,19.3445687 4.97021484,18.3598633 C3.64371082,17.3751578 2.6508822,16.2521222 1.99169922,14.9907227 C1.33251624,13.7293231 1.00292969,12.2848389 1.00292969,10.6572266 C1.00292969,7.84145728 1.94286169,5.52214453 3.82275391,3.69921875 C5.70264612,1.87629297 8.1643728,0.96484375 11.2080078,0.96484375 C13.2913516,0.96484375 15.1468018,1.43277527 16.7744141,2.36865234 C18.4020264,3.30452942 19.655269,4.60253076 20.5341797,6.26269531 C21.4130903,7.92285986 21.8525391,9.7457583 21.8525391,11.7314453 L17.3603516,11.7314453 C17.3603516,9.5341687 16.8313855,7.83333936 15.7734375,6.62890625 C14.7154895,5.42447314 13.1936948,4.82226562 11.2080078,4.82226562 C9.40135815,4.82226562 8.00163257,5.32681787 7.00878906,6.3359375 C6.01594556,7.34505713 5.51953125,8.76105859 5.51953125,10.5839844 C5.51953125,12.0813877 6.05663525,13.3346304 7.13085938,14.34375 C8.2050835,15.3528696 9.86522314,16.2561809 12.1113281,17.0537109 C15.6106946,18.2093157 18.113111,19.6334551 19.6186523,21.3261719 C21.1241937,23.0188887 21.8769531,25.2324082 21.8769531,27.9667969 C21.8769531,30.8476707 20.9410901,33.1547765 19.0693359,34.8881836 C17.1975818,36.6215907 14.6504067,37.4882812 11.4277344,37.4882812 C9.36066675,37.4882812 7.45231995,37.0366256 5.70263672,36.1333008 C3.95295349,35.229976 2.57764172,33.9604574 1.57666016,32.324707 C0.575678589,30.6889567 0.0751953125,28.8131616 0.0751953125,26.6972656 L4.56738281,26.6972656 C4.56738281,28.8945422 5.18179724,30.6035095 6.41064453,31.8242188 C7.63949182,33.044928 9.31183838,33.6552734 11.4277344,33.6552734 C13.3971453,33.6552734 14.8782502,33.1507212 15.8710938,32.1416016 C16.8639373,31.1324819 17.3603516,29.7571702 17.3603516,28.015625 L17.3603516,28.015625 Z" id="S-Copy-5" sketch:type="MSShapeGroup"></path>
            <path d="M29.046875,24.5 L26.28125,24.5 L26.28125,0.5 L29.046875,0.5 L29.046875,24.5 Z M36.375,24.5 L33.609375,24.5 L33.609375,7.59375 L36.375,7.59375 L36.375,24.5 Z M36.59375,3.109375 C36.59375,3.57812734 36.463543,3.96874844 36.203125,4.28125 C35.942707,4.59375156 35.5468777,4.75 35.015625,4.75 C34.4947891,4.75 34.104168,4.59375156 33.84375,4.28125 C33.583332,3.96874844 33.453125,3.57812734 33.453125,3.109375 C33.453125,2.64062266 33.583332,2.24479328 33.84375,1.921875 C34.104168,1.59895672 34.4947891,1.4375 35.015625,1.4375 C35.5364609,1.4375 35.9296862,1.60156086 36.1953125,1.9296875 C36.4609388,2.25781414 36.59375,2.65103938 36.59375,3.109375 L36.59375,3.109375 Z M40.140625,15.28125 C40.140625,12.6770703 40.6275993,10.6927152 41.6015625,9.328125 C42.5755257,7.96353484 43.9739492,7.28125 45.796875,7.28125 C47.4114664,7.28125 48.6718705,7.93749344 49.578125,9.25 L49.578125,0.5 L52.34375,0.5 L52.34375,24.5 L49.8125,24.5 L49.671875,22.6875 C48.7656205,24.1041738 47.4687584,24.8125 45.78125,24.8125 C44.0312413,24.8125 42.6588591,24.1328193 41.6640625,22.7734375 C40.6692659,21.4140557 40.1614584,19.4948041 40.140625,17.015625 L40.140625,15.28125 Z M42.90625,16.859375 C42.90625,18.7552178 43.1874972,20.148433 43.75,21.0390625 C44.3125028,21.929692 45.2291603,22.375 46.5,22.375 C47.8750069,22.375 48.9010383,21.6822986 49.578125,20.296875 L49.578125,11.765625 C48.8697881,10.4114516 47.848965,9.734375 46.515625,9.734375 C45.2447853,9.734375 44.3281278,10.179683 43.765625,11.0703125 C43.2031222,11.960942 42.9166667,13.3281158 42.90625,15.171875 L42.90625,16.859375 Z M62.640625,24.8125 C60.5364478,24.8125 58.9218806,24.1849021 57.796875,22.9296875 C56.6718694,21.6744729 56.0989584,19.8333455 56.078125,17.40625 L56.078125,15.359375 C56.078125,12.8385291 56.6275987,10.8619863 57.7265625,9.4296875 C58.8255263,7.99738867 60.3593652,7.28125 62.328125,7.28125 C64.3073016,7.28125 65.7864534,7.91145203 66.765625,9.171875 C67.7447966,10.432298 68.2447916,12.39582 68.265625,15.0625 L68.265625,16.875 L58.828125,16.875 L58.828125,17.265625 C58.828125,19.0781341 59.1692674,20.3958292 59.8515625,21.21875 C60.5338576,22.0416708 61.5156186,22.453125 62.796875,22.453125 C63.6093791,22.453125 64.3255177,22.2994807 64.9453125,21.9921875 C65.5651073,21.6848943 66.1458306,21.19792 66.6875,20.53125 L68.125,22.28125 C66.9270773,23.9687584 65.0989706,24.8125 62.640625,24.8125 L62.640625,24.8125 Z M62.328125,9.65625 C61.1822859,9.65625 60.3333361,10.0494752 59.78125,10.8359375 C59.2291639,11.6223998 58.916667,12.8437417 58.84375,14.5 L65.5,14.5 L65.5,14.125 C65.427083,12.5208253 65.1380234,11.3750034 64.6328125,10.6875 C64.1276016,9.99999656 63.3593802,9.65625 62.328125,9.65625 L62.328125,9.65625 Z" id="lide-copy-5" sketch:type="MSShapeGroup"></path>
        </g>
    </g>
</svg>